<svg width="201" height="186" viewBox="0 0 201 186" fill="none" xmlns="http://www.w3.org/2000/svg">
<g clip-path="url(#clip0_337_186)">
<path d="M193.164 22.328H195.15C196.67 10.6566 184.969 1.79343 171.548 0.711426C176.819 1.92029 181.643 4.5893 185.466 8.41253C189.289 12.2358 191.957 17.0585 193.164 22.328V22.328Z" fill="#F2F2F2"/>
<path d="M162.274 57.1503C161.151 57.1366 160.074 57.0987 159.045 57.0366C160.113 57.2012 161.197 57.2394 162.274 57.1503V57.1503Z" fill="#F2F2F2"/>
<path d="M137.296 28.674C137.555 13.3004 149.809 0.789004 165.19 0.789004C167.303 0.564781 169.431 0.538732 171.549 0.711198C167.349 -0.24158 162.988 -0.236988 158.79 0.724632C154.592 1.68625 150.665 3.58023 147.299 6.26611C143.933 8.95198 141.215 12.3609 139.347 16.2399C137.478 20.119 136.508 24.3688 136.506 28.674C136.506 43.2516 137.028 55.6885 159.045 57.0367C147.891 55.3431 137.092 40.7458 137.296 28.674Z" fill="#F2F2F2"/>
<path d="M192.836 29.123C187.794 37.7458 167.969 44.0695 165.19 56.5593C164.244 56.8696 163.266 57.068 162.274 57.1503C163.187 57.1614 164.13 57.1578 165.109 57.1353C180.775 57.1353 193.625 44.7238 193.868 29.1231L192.836 29.123Z" fill="#F2F2F2"/>
<path d="M167.441 49.6282C163.775 41.6773 162.169 33.1085 163.294 23.7209C163.12 22.6288 163.729 21.5345 164.655 21.2745L181.254 16.6387C182.18 16.3813 183.072 17.0564 183.248 18.1479L187.395 44.0552C187.569 45.1472 186.96 46.2416 186.034 46.5015L169.436 51.1373C168.509 51.3948 167.617 50.7197 167.441 49.6282Z" fill="#F2F2F2"/>
<path d="M175.303 19.5047C175.542 17.6537 174.483 15.9913 172.938 15.7917C171.392 15.5921 169.945 16.9308 169.706 18.7818C169.467 20.6328 170.526 22.2951 172.071 22.4948C173.617 22.6944 175.064 21.3557 175.303 19.5047Z" fill="#F2F2F2"/>
<path d="M144.949 36.9587C141.283 29.0079 139.677 20.439 140.802 11.0515C140.628 9.95941 141.237 8.86502 142.163 8.6051L158.762 3.96929C159.688 3.71185 160.58 4.38699 160.756 5.47849L164.903 31.3857C165.077 32.4778 164.468 33.5722 163.542 33.8321L146.943 38.4679C146.017 38.7253 145.125 38.0502 144.949 36.9587Z" fill="#F2F2F2"/>
<path d="M152.81 6.83527C153.05 4.98427 151.991 3.32189 150.445 3.12226C148.9 2.92263 147.453 4.26134 147.213 6.11234C146.974 7.96334 148.033 9.6257 149.579 9.82533C151.124 10.025 152.571 8.68627 152.81 6.83527Z" fill="#F2F2F2"/>
<path d="M167.668 123.034H0.551758V123.578H167.668V123.034Z" fill="#3F3D56"/>
<path d="M68.5286 58.8855C68.3315 58.1958 71.0876 64.5175 70.432 64.5936C67.4457 64.9361 60.8286 66.4801 58.7487 67.3118C58.655 67.3009 58.5613 67.2901 58.4704 67.2765C58.2473 67.252 58.0296 67.2167 57.8148 67.1759C52.9717 66.2599 49.3078 62.2832 49.2086 57.4829C49.2031 57.415 49.2031 57.3443 49.2031 57.2764C49.2024 56.9449 49.2199 56.6137 49.2554 56.2842C49.301 55.8343 49.3793 55.3882 49.4896 54.9496L49.4786 54.9469C47.5502 53.1366 48.3629 49.7797 50.8202 48.3635C51.8879 47.7498 53.072 47.3656 54.2968 47.2355C54.6289 47.1994 54.9628 47.1813 55.2968 47.1811H58.4346C59.0839 47.0412 59.742 46.9459 60.4043 46.8957H60.4098C66.7267 46.4146 71.7075 50.2635 71.2419 54.9469C71.2392 54.9523 71.2337 54.9578 71.2309 54.9632C71.0959 55.1644 70.9775 55.3546 70.8728 55.5367C70.7709 55.708 70.6855 55.8711 70.6111 56.026C70.0353 57.222 71.5153 58.7269 70.534 59.0078C69.2287 59.3814 73.9667 71.6609 68.8005 71.6609C71.3135 72.3751 69.0724 60.7882 68.5286 58.8855Z" fill="#2F2E41"/>
<path d="M97.3527 177.577L101.427 177.542L103.23 161.468L97.2175 161.518L97.3527 177.577Z" fill="#FFB6B6"/>
<path d="M110.402 184.053C110.406 184.536 110.218 185.001 109.879 185.345C109.541 185.689 109.079 185.885 108.596 185.89L100.496 185.958L99.0783 183.084L98.5575 185.972L95.5012 186L96.273 175.7L97.3363 175.629L101.673 175.33L103.073 175.236L103.097 178.151L109.604 182.563C109.848 182.728 110.048 182.95 110.187 183.21C110.326 183.469 110.4 183.759 110.402 184.053Z" fill="#2F2E41"/>
<path d="M102.517 169.515C100.896 169.319 96.8068 168.971 96.8068 168.971C96.8068 168.971 94.8763 164.943 95.189 163.69C95.4963 162.431 96.263 162.176 95.5506 161.518C93.8159 155.109 94.0932 144.698 94.0932 144.698C94.0932 144.698 84.7559 140.178 75.3017 134.945C66.0596 129.827 56.706 124.029 55.8604 121.107C55.3022 119.017 54.9274 116.883 54.7401 114.728C54.5987 113.314 54.5117 111.928 54.4573 110.686C54.3295 107.842 54.3812 105.741 54.3812 105.741L66.1629 105.546L73.9666 105.366H74.7824V106.725L76.8325 110.21C76.8325 110.21 80.3755 114.328 79.9595 114.711C79.4564 115.176 79.6087 115.589 81.3952 115.926C81.9031 116.015 82.4206 116.036 82.9341 115.989C85.8191 115.769 87.0263 117.419 87.097 117.78C87.581 120.332 92.4346 125.877 96.9809 130.61H96.9836C101.179 134.981 105.111 138.656 105.111 138.656L105.334 143.344L106.381 165.266C106.381 165.266 104.418 164.168 106.171 166.536C107.925 168.906 104.137 169.708 102.517 169.515Z" fill="#2F2E41"/>
<path d="M146.718 118.541L148.382 114.822L134.508 106.498L132.053 111.985L146.718 118.541Z" fill="#FFB6B6"/>
<path d="M158.037 109.371C158.478 109.569 158.822 109.933 158.995 110.384C159.167 110.835 159.154 111.336 158.957 111.777L155.65 119.168L152.446 119.262L154.857 120.937L153.611 123.727L144.561 118.741L144.939 117.745L146.471 113.678L146.968 112.367L149.629 113.557L156.349 109.477C156.601 109.324 156.886 109.234 157.18 109.216C157.474 109.198 157.768 109.251 158.037 109.371V109.371Z" fill="#2F2E41"/>
<path d="M139.582 109.542C139.573 109.563 139.561 109.582 139.552 109.599C138.794 110.99 137.55 114.208 137.472 114.407C137.47 114.41 137.469 114.414 137.469 114.418C137.469 114.418 133.364 114.207 132.315 113.455C131.264 112.697 132.854 113.895 130.431 112.31C129.178 111.486 124.885 110.199 121.041 109.148C117.464 108.17 114.277 107.401 114.277 107.401C114.277 107.401 111.46 109.965 107.378 113.507L107.376 113.509C103.585 116.792 98.6993 120.92 93.9649 124.616C83.8287 127.596 73.1304 130.179 70.4559 128.728C68.5759 127.657 66.7928 126.424 65.127 125.044L67.881 117.827L75.1641 110.203L82.8307 107.089L85.8298 105.87L90.0293 104.166L112.766 94.9312L137.946 103.65C137.946 103.65 136.192 105.066 139.046 104.319C141.862 103.584 140.374 108.051 139.582 109.542Z" fill="#2F2E41"/>
<path d="M60.0994 67.5835H68.2566L69.5409 70.4174L75.0038 72.8507C75.7143 73.1676 76.3403 73.6471 76.8313 74.2503C77.3224 74.8535 77.6647 75.5637 77.8308 76.3234C79.7979 85.3128 77.3097 87.1805 77.2296 90.1443C76.9577 100.201 75.5566 102.202 75.7133 104.685C75.7602 105.428 76.2139 108.366 77.6734 108.089C79.1329 107.812 78.3462 108.974 78.6916 109.425C78.99 109.815 80.5596 109.298 79.5744 110.594C78.5891 111.89 82.8013 115.423 80.2205 115.423C75.3262 115.423 65.5376 117.87 61.7309 117.87C57.9242 117.87 54.9824 118.998 53.3017 118.957C52.2774 118.932 52.5976 114.157 53.0071 110.022C53.0998 109.085 54.8983 109.11 53.2843 107.374C51.6703 105.638 53.5702 104.736 53.5736 104.279C53.5773 103.793 54.4886 102.571 53.3514 100.571C52.2141 98.5706 53.2625 99.3982 53.213 98.7702C52.8324 93.9305 52.2869 87.7596 52.2869 87.7596L49.8823 80.9942C49.2676 79.2649 49.3489 77.3645 50.1089 75.694C50.8689 74.0234 52.2483 72.7133 53.9561 72.0398L56.7767 70.9276L60.0994 67.5835Z" fill="#E6E6E6"/>
<path d="M117.389 65.0882C117.208 65.4263 116.955 65.721 116.649 65.9519C116.342 66.1828 115.989 66.3444 115.614 66.4255C115.239 66.5066 114.851 66.5053 114.477 66.4218C114.102 66.3382 113.75 66.1743 113.445 65.9414L101.954 72.4448L99.3735 69.7097L113.078 62.0852C113.508 61.6014 114.101 61.2921 114.745 61.2161C115.388 61.14 116.036 61.3025 116.568 61.6726C117.099 62.0428 117.476 62.5949 117.628 63.2245C117.779 63.854 117.694 64.5171 117.389 65.0882V65.0882Z" fill="#FFB6B6"/>
<path d="M65.6501 80.4394L65.4751 82.5337L88.3517 82.2397L111.123 69.4425L107.794 64.3203L87.7794 72.7327L73.5543 73.0211C71.5524 73.0616 69.6365 73.8424 68.1767 75.2124C66.7169 76.5825 65.8168 78.4447 65.6501 80.4394V80.4394Z" fill="#E6E6E6"/>
<path d="M62.8895 66.0905C66.9925 66.0905 70.3186 62.7655 70.3186 58.6639C70.3186 54.5623 66.9925 51.2373 62.8895 51.2373C58.7866 51.2373 55.4604 54.5623 55.4604 58.6639C55.4604 62.7655 58.7866 66.0905 62.8895 66.0905Z" fill="#FFB6B6"/>
<path d="M71.2419 55.3522C71.1179 55.4174 70.9967 55.4772 70.8727 55.537C70.7432 55.5996 70.6137 55.6621 70.4843 55.7191C67.9966 56.8472 65.9718 56.9722 64.7431 55.3522C64.7102 54.4998 64.5187 53.6609 64.1784 52.8787C64.2385 53.7529 64.008 54.6224 63.5227 55.3522H61.0489C58.5006 57.0429 57.1921 57.2196 58.9607 62.7701C59.4538 64.3167 61.4145 73.3165 60.6432 74.6512C60.42 74.6267 58.0295 67.217 57.8147 67.1762C52.9716 66.2602 49.3077 62.2835 49.2085 57.4832C49.214 57.2386 49.2305 56.994 49.2553 56.7548C49.5744 56.2753 49.925 55.8177 50.3049 55.3848C50.303 54.1017 50.5981 52.8355 51.1672 51.6854C51.8871 50.2283 53.0094 49.0077 54.4014 48.1681C55.2311 47.7659 56.0961 47.4411 56.9855 47.1977C57.0075 47.1923 57.0268 47.1868 57.0488 47.1814C57.3215 47.108 57.5998 47.0401 57.878 46.983C58.4528 46.8616 59.0341 46.7736 59.6191 46.7193C59.6604 46.7166 59.7017 46.7139 59.7403 46.7139C59.9739 46.7144 60.2031 46.7773 60.4042 46.896C60.407 46.896 60.407 46.8987 60.4097 46.8987C60.5535 46.9827 60.679 47.0945 60.7789 47.2276C60.9548 47.4516 61.05 47.7284 61.0489 48.0131H63.8037C63.9056 48.0131 64.0076 48.0159 64.1095 48.0213C65.9481 48.0841 67.6972 48.8306 69.0143 50.1145C70.3314 51.3985 71.1218 53.1276 71.2308 54.9635C71.2391 55.094 71.2419 55.2217 71.2419 55.3522Z" fill="#2F2E41"/>
<path d="M52.7579 56.7112C55.4609 56.7112 57.6522 54.5206 57.6522 51.8185C57.6522 49.1163 55.4609 46.9258 52.7579 46.9258C50.0548 46.9258 47.8635 49.1163 47.8635 51.8185C47.8635 54.5206 50.0548 56.7112 52.7579 56.7112Z" fill="#2F2E41"/>
<path d="M58.7398 48.0132C58.8333 50.7137 56.5486 52.9059 53.8455 52.9059C52.5474 52.9059 51.3025 52.3904 50.3847 51.4728C49.4668 50.5553 48.9512 49.3108 48.9512 48.0132C48.9512 45.311 52.2248 45.283 53.8455 43.1205C56.1382 40.0612 58.6138 44.3713 58.7398 48.0132Z" fill="#2F2E41"/>
<path d="M65.1393 124.551C64.3793 113.278 66.6041 102.674 72.7829 92.9567C72.9383 92.3174 73.3411 91.7658 73.9028 91.423C74.4645 91.0802 75.1393 90.9741 75.7792 91.128L99.6481 96.8987C100.288 97.0541 100.839 97.4567 101.182 98.0182C101.525 98.5798 101.631 99.2544 101.477 99.894L93.8338 131.489C93.6783 132.128 93.2756 132.679 92.7139 133.022C92.1521 133.365 91.4773 133.471 90.8375 133.317L66.9686 127.547C66.3291 127.391 65.7773 126.989 65.4344 126.427C65.0914 125.866 64.9853 125.191 65.1393 124.551V124.551Z" fill="#F2F2F2"/>
<path opacity="0.2" d="M69.8169 126.946C69.1774 126.79 68.6256 126.388 68.2827 125.826C67.9398 125.264 67.8337 124.59 67.9876 123.95C67.2276 112.677 69.4525 102.073 75.6312 92.3556C75.7353 91.9364 75.9484 91.5521 76.2489 91.2416L75.7792 91.128C75.1393 90.9741 74.4645 91.0802 73.9028 91.423C73.3411 91.7658 72.9383 92.3174 72.7828 92.9566C66.6041 102.674 64.3793 113.278 65.1393 124.551C64.9853 125.191 65.0914 125.866 65.4344 126.427C65.7773 126.989 66.329 127.391 66.9685 127.547L90.8374 133.317C91.2617 133.418 91.7052 133.405 92.123 133.28C92.5407 133.154 92.9178 132.921 93.2161 132.603L69.8169 126.946Z" fill="black"/>
<path d="M91.4278 113.645L75.4221 109.822C75.1676 109.761 74.9478 109.602 74.8109 109.379C74.674 109.156 74.6313 108.888 74.6921 108.633C74.7529 108.379 74.9123 108.159 75.1352 108.022C75.3581 107.885 75.6263 107.842 75.8809 107.902L91.8867 111.725C92.1406 111.787 92.3597 111.946 92.4961 112.169C92.6325 112.392 92.675 112.66 92.6143 112.914C92.5536 113.168 92.3946 113.387 92.1722 113.524C91.9498 113.661 91.6821 113.705 91.4278 113.645L91.4278 113.645Z" fill="white"/>
<path d="M80.2016 105.398L76.6804 104.557C76.4258 104.497 76.2055 104.338 76.068 104.116C75.9305 103.893 75.887 103.625 75.947 103.371C76.007 103.116 76.1656 102.896 76.388 102.758C76.6104 102.62 76.8784 102.576 77.1332 102.636L77.1392 102.637L80.6605 103.478C80.9144 103.54 81.1336 103.7 81.2699 103.922C81.4063 104.145 81.4488 104.413 81.3881 104.667C81.3274 104.921 81.1684 105.141 80.946 105.278C80.7236 105.415 80.4559 105.458 80.2016 105.398V105.398Z" fill="white"/>
<path d="M89.4104 122.086L73.4047 118.263C73.1507 118.202 72.9314 118.042 72.795 117.819C72.6585 117.597 72.616 117.329 72.6767 117.075C72.7374 116.82 72.8965 116.601 73.1189 116.464C73.3414 116.327 73.6092 116.283 73.8636 116.343L89.8693 120.166C89.9957 120.195 90.115 120.25 90.2204 120.325C90.3258 120.401 90.4153 120.497 90.4837 120.607C90.552 120.717 90.598 120.84 90.6189 120.968C90.6398 121.096 90.6352 121.227 90.6055 121.353C90.5757 121.48 90.5213 121.599 90.4454 121.704C90.3695 121.809 90.2736 121.899 90.1632 121.967C90.0528 122.035 89.93 122.081 89.8019 122.101C89.6737 122.122 89.5428 122.117 89.4165 122.087L89.4104 122.086Z" fill="white"/>
<path d="M90.4191 117.866L74.4134 114.043C74.1586 113.983 73.9383 113.823 73.801 113.6C73.6637 113.378 73.6205 113.109 73.6811 112.855C73.7416 112.6 73.9009 112.38 74.1238 112.242C74.3468 112.105 74.6152 112.062 74.87 112.122L74.8722 112.123L90.878 115.946C91.132 116.007 91.3513 116.167 91.4877 116.39C91.6242 116.612 91.6667 116.88 91.606 117.134C91.5452 117.389 91.3862 117.608 91.1637 117.745C90.9413 117.882 90.6735 117.926 90.4191 117.866L90.4191 117.866Z" fill="white"/>
<path d="M87.0356 98.0402C89.3094 98.0402 91.1526 96.1976 91.1526 93.9247C91.1526 91.6517 89.3094 89.8091 87.0356 89.8091C84.7619 89.8091 82.9187 91.6517 82.9187 93.9247C82.9187 96.1976 84.7619 98.0402 87.0356 98.0402Z" fill="#3F3D56"/>
<path d="M66.2774 126.907C65.9416 126.722 65.6501 126.465 65.4231 126.156C65.1961 125.847 65.039 125.492 64.9626 125.116C64.8863 124.74 64.8926 124.352 64.981 123.979C65.0694 123.606 65.2379 123.256 65.4748 122.954L59.1174 111.384L61.8864 108.84L69.3366 122.637C69.815 123.073 70.1167 123.67 70.1845 124.314C70.2523 124.958 70.0815 125.604 69.7044 126.13C69.3273 126.657 68.7702 127.027 68.1386 127.17C67.507 127.313 66.8447 127.22 66.2774 126.907H66.2774Z" fill="#FFB6B6"/>
<path d="M58.8521 75.6931L52.0145 75.0336C51.6955 75.0028 51.3736 75.0391 51.0695 75.14C50.7653 75.2409 50.4856 75.4044 50.2484 75.6197C50.0111 75.8351 49.8216 76.0977 49.6919 76.3907C49.5621 76.6836 49.4951 77.0004 49.4951 77.3208V97.6615L62.0028 120.588L67.1691 117.326L59.0119 97.2115L58.8521 75.6931Z" fill="#E6E6E6"/>
<path d="M112.832 74.0424C114.418 62.8554 118.785 52.9394 126.838 44.7071C127.123 44.1137 127.631 43.6571 128.251 43.4377C128.872 43.2182 129.554 43.2538 130.148 43.5365L152.31 54.1108C152.904 54.3948 153.36 54.9027 153.58 55.5229C153.799 56.1431 153.764 56.8251 153.481 57.4191L139.475 86.7545C139.191 87.3479 138.683 87.8044 138.062 88.0239C137.442 88.2433 136.76 88.2078 136.165 87.9251L114.003 77.3508C113.41 77.0667 112.953 76.5589 112.733 75.9387C112.514 75.3184 112.549 74.6365 112.832 74.0424V74.0424Z" fill="#F2F2F2"/>
<path opacity="0.2" d="M116.914 77.3508C116.321 77.0667 115.864 76.5589 115.645 75.9386C115.425 75.3184 115.461 74.6365 115.743 74.0424C117.329 62.8554 121.696 52.9394 129.75 44.707C129.938 44.3183 130.226 43.9863 130.584 43.7446L130.148 43.5365C129.554 43.2538 128.872 43.2182 128.251 43.4377C127.631 43.6571 127.123 44.1136 126.838 44.707C118.785 52.9394 114.418 62.8554 112.832 74.0424C112.549 74.6365 112.514 75.3184 112.733 75.9386C112.953 76.5589 113.41 77.0667 114.003 77.3508L136.165 87.9251C136.56 88.1116 136.996 88.1905 137.431 88.154C137.865 88.1175 138.283 87.9667 138.64 87.717L116.914 77.3508Z" fill="black"/>
<path d="M140.807 68.7994L125.936 61.7545C125.7 61.6424 125.517 61.4409 125.429 61.1944C125.341 60.9478 125.355 60.6764 125.467 60.4399C125.579 60.2033 125.781 60.0209 126.027 59.9329C126.274 59.8449 126.545 59.8585 126.782 59.9706L141.653 67.0154C141.889 67.1281 142.07 67.3296 142.157 67.5757C142.245 67.8219 142.231 68.0926 142.119 68.3286C142.007 68.5646 141.806 68.7467 141.56 68.8349C141.315 68.9231 141.044 68.9104 140.807 68.7993L140.807 68.7994Z" fill="white"/>
<path d="M131.527 58.4126L128.255 56.8627C128.138 56.8077 128.032 56.73 127.945 56.6342C127.857 56.5383 127.79 56.4262 127.746 56.3042C127.702 56.1822 127.682 56.0527 127.688 55.9232C127.694 55.7936 127.726 55.6665 127.781 55.5491C127.836 55.4317 127.914 55.3264 128.01 55.2391C128.106 55.1517 128.218 55.0842 128.34 55.0403C128.462 54.9963 128.592 54.9769 128.721 54.983C128.851 54.9892 128.978 55.0208 129.095 55.0761L129.101 55.0788L132.373 56.6287C132.608 56.7413 132.79 56.9427 132.878 57.1889C132.965 57.4351 132.951 57.706 132.839 57.9421C132.727 58.1782 132.526 58.3603 132.28 58.4485C132.034 58.5367 131.763 58.5238 131.527 58.4126V58.4126Z" fill="white"/>
<path d="M137.09 76.6419L122.219 69.597C121.983 69.4844 121.801 69.283 121.714 69.0368C121.626 68.7906 121.64 68.5197 121.752 68.2836C121.864 68.0475 122.065 67.8654 122.311 67.7772C122.557 67.689 122.828 67.7019 123.064 67.8131L137.935 74.858C138.053 74.9131 138.158 74.9908 138.245 75.0867C138.333 75.1825 138.4 75.2946 138.444 75.4165C138.488 75.5385 138.508 75.6679 138.502 75.7973C138.495 75.9268 138.464 76.0538 138.409 76.1711C138.354 76.2885 138.276 76.3938 138.18 76.481C138.084 76.5683 137.972 76.6359 137.85 76.6798C137.728 76.7238 137.599 76.7433 137.469 76.7372C137.34 76.7312 137.213 76.6997 137.095 76.6446L137.09 76.6419Z" fill="white"/>
<path d="M138.948 72.7203L124.078 65.6754C123.841 65.5636 123.658 65.3623 123.57 65.1159C123.481 64.8694 123.495 64.598 123.607 64.3613C123.718 64.1246 123.92 63.942 124.166 63.8537C124.413 63.7654 124.684 63.7787 124.921 63.8905L124.923 63.8915L139.794 70.9364C140.03 71.049 140.211 71.2505 140.299 71.4966C140.386 71.7428 140.372 72.0136 140.261 72.2496C140.149 72.4857 139.948 72.6678 139.702 72.756C139.456 72.8442 139.185 72.8314 138.948 72.7203L138.948 72.7203Z" fill="white"/>
<path d="M140.584 52.7126C142.858 52.7126 144.701 50.87 144.701 48.597C144.701 46.324 142.858 44.4814 140.584 44.4814C138.31 44.4814 136.467 46.324 136.467 48.597C136.467 50.87 138.31 52.7126 140.584 52.7126Z" fill="#3F3D56"/>
<path d="M176.111 88.5351C171.646 78.8522 169.691 68.4167 171.06 56.9842C170.849 55.6542 171.59 54.3214 172.718 54.0048L192.933 48.3591C194.061 48.0456 195.147 48.8678 195.362 50.1971L200.412 81.748C200.624 83.078 199.882 84.4108 198.755 84.7273L178.54 90.373C177.412 90.6865 176.325 89.8643 176.111 88.5351Z" fill="#F2F2F2"/>
<path opacity="0.2" d="M180.508 88.5521C179.38 88.8656 178.293 88.0434 178.079 86.7141C173.614 77.0312 171.659 66.5957 173.028 55.1632C172.964 54.7387 172.994 54.3052 173.116 53.8936L172.718 54.0046C171.59 54.3212 170.849 55.654 171.06 56.9839C169.691 68.4165 171.646 78.852 176.111 88.5349C176.325 89.8641 177.412 90.6863 178.54 90.3728L198.755 84.7272C199.139 84.598 199.485 84.3735 199.76 84.0745C200.034 83.7756 200.229 83.4119 200.325 83.0175L180.508 88.5521Z" fill="black"/>
<path d="M192.426 66.9649L178.887 70.7925C178.439 70.9187 178.006 70.5922 177.92 70.0633C177.872 69.82 177.911 69.5674 178.031 69.3504C178.151 69.1333 178.344 68.9658 178.576 68.8776L192.115 65.0501C192.564 64.9249 192.997 65.2525 193.081 65.7816C193.129 66.0244 193.09 66.2763 192.97 66.4928C192.85 66.7094 192.658 66.8766 192.426 66.9649H192.426Z" fill="white"/>
<path d="M181.013 64.6998L178.034 65.5419C177.586 65.6704 177.151 65.3462 177.064 64.8178C177.014 64.5743 177.053 64.3211 177.173 64.1033C177.292 63.8855 177.486 63.7173 177.718 63.6284L177.723 63.627L180.701 62.785C181.15 62.6598 181.583 62.9873 181.667 63.5165C181.715 63.7592 181.676 64.0111 181.556 64.2277C181.436 64.4442 181.244 64.6115 181.013 64.6998Z" fill="white"/>
<path d="M193.795 75.3829L180.256 79.2104C179.807 79.3356 179.375 79.0081 179.29 78.4789C179.242 78.2362 179.281 77.9843 179.401 77.7677C179.521 77.5512 179.713 77.3839 179.945 77.2956L193.484 73.4681C193.932 73.3396 194.366 73.6637 194.454 74.1921C194.503 74.4356 194.465 74.6888 194.345 74.9066C194.225 75.1244 194.032 75.2926 193.8 75.3815L193.795 75.3829Z" fill="white"/>
<path d="M193.111 71.1739L179.572 75.0015C179.123 75.1289 178.689 74.8037 178.603 74.2751C178.554 74.0316 178.593 73.7785 178.713 73.5609C178.833 73.3434 179.026 73.1755 179.259 73.0872L179.261 73.0866L192.799 69.2591C193.248 69.1339 193.681 69.4614 193.765 69.9906C193.813 70.2333 193.774 70.4853 193.654 70.7018C193.534 70.9183 193.342 71.0856 193.111 71.1739L193.111 71.1739Z" fill="white"/>
<path d="M185.685 51.8496C185.976 49.5953 184.687 47.5708 182.805 47.3277C180.922 47.0846 179.16 48.7149 178.869 50.9691C178.578 53.2234 179.867 55.2479 181.749 55.491C183.632 55.7341 185.394 54.1038 185.685 51.8496Z" fill="#3F3D56"/>
</g>
<defs>
<clipPath id="clip0_337_186">
<rect width="199.897" height="186" fill="white" transform="translate(0.551758)"/>
</clipPath>
</defs>
</svg>
